# AST/ASF file generated using VICON BodyLanguage
# -----------------------------------------------
:version 1.10
:name VICON
:units
  mass 1.0
  length 0.45
  angle deg
:documentation
   .ast/.asf automatically generated from VICON data using
   VICON BodyBuilder and BodyLanguage model FoxedUp or BRILLIANT.MOD
:root
   order TX TY TZ RX RY RZ
   axis XYZ
   position 0 0 0  
   orientation 0 0 0 
:bonedata
  begin
     id 1 
     name lhipjoint
     direction 0.597014 -0.743513 0.301268 
     length 2.48253 
     axis 0 0 0  XYZ
  end
  begin
     id 2 
     name lfemur
     direction 0.34202 -0.939693 0  
     length 7.51389  
     axis 0 0 20  XYZ
    dof rx ry rz
    limits (-160.0 20.0)
           (-70.0 70.0)
           (-60.0 70.0)
  end
  begin
     id 3 
     name ltibia
     direction 0.34202 -0.939693 0   
     length 7.54147   
     axis 0 0 20   XYZ
    dof rx
    limits (-10.0 170.0)
  end
  begin
     id 4 
     name lfoot
     direction 0.10378 -0.285133 0.952853   
     length 2.2132   
     axis -90 7.62852e-016 20   XYZ
    dof rx rz
    limits (-45.0 90.0)
           (-70.0 20.0)
  end
  begin
     id 5 
     name ltoes
     direction 1.5354e-011 -4.2171e-011 1   
     length 1.10362   
     axis -90 7.62852e-016 20   XYZ
    dof rx
    limits (-90.0 20.0)
  end
  begin
     id 6 
     name rhipjoint
     direction -0.591912 -0.747009 0.302685   
     length 2.47092  
     axis 0 0 0  XYZ 
  end
  begin
     id 7 
     name rfemur
     direction -0.34202 -0.939693 0   
     length 7.69991   
     axis 0 0 -20   XYZ
    dof rx ry rz
    limits (-160.0 20.0)
           (-70.0 70.0)
           (-70.0 60.0)
  end
  begin
     id 8 
     name rtibia
     direction -0.34202 -0.939693 0   
     length 7.40774   
     axis 0 0 -20   XYZ
    dof rx
    limits (-10.0 170.0)
 end
 begin
     id 9 
     name rfoot
     direction -0.0916245 -0.251736 0.963449   
     length 2.08235  
     axis -90 -7.62852e-016 -20   XYZ
    dof rx rz
    limits (-45.0 90.0)
           (-20.0 70.0)
  end
  begin
     id 10 
     name rtoes
     direction -1.53527e-011 -4.21878e-011 1   
     length 1.04369   
     axis -90 -7.62852e-016 -20   XYZ
    dof rx
    limits (-90.0 20.0)
  end
  begin
     id 11 
     name lowerback
     direction -0.0122523 0.991496 -0.12956   
     length 2.10814   
     axis 0 0 0   XYZ
    dof rx ry rz
    limits (-20.0 45.0)
           (-30.0 30.0)
           (-30.0 30.0)
  end
  begin
     id 12 
     name upperback
     direction 0.012378 0.999784 -0.0167122   
     length 2.11728   
     axis 0 0 0   XYZ
    dof rx ry rz
    limits (-20.0 45.0)
           (-30.0 30.0)
           (-30.0 30.0)
  end
  begin
     id 13 
     name thorax
     direction 0.0187236 0.998893 0.0431542   
     length 2.15267   
     axis 0 0 0   XYZ
    dof rx ry rz
    limits (-20.0 45.0)
           (-30.0 30.0)
           (-30.0 30.0)
  end
  begin
     id 14 
     name lowerneck
     direction 0.0165467 0.987304 0.157979   
     length 1.72129   
     axis 0 0 0   XYZ
    dof rx ry rz
    limits (-20.0 45.0)
           (-30.0 30.0)
           (-30.0 30.0)
  end
  begin
     id 15 
     name upperneck
     direction -0.0560236 0.986819 -0.151818   
     length 1.75382   
     axis 0 0 0   XYZ
    dof rx ry rz
    limits (-20.0 45.0)
           (-30.0 30.0)
           (-30.0 30.0)
  end
  begin
     id 16
     name head
     direction -0.0173602 0.99745 -0.0692312  
     length 1.76328  
     axis 0 0 0   XYZ
    dof rx ry rz
    limits (-20.0 45.0)
           (-30.0 30.0)
           (-30.0 30.0)
  end
  begin
     id 17 
     name lclavicle
     direction 0.957734 0.271724 -0.094399  
     length 3.5782  
     axis 0 0 0   XYZ
    dof ry rz
    limits (-20.0 10.0)
           (0.0 20.0)
  end
  begin
     id 18 
     name lhumerus
     direction 1 -4.48963e-011 1.21581e-027   
     length 5.25525   
     axis 180 -30 -90   XYZ
    dof rx ry rz
    limits (-60.0 90.0)
           (-90.0 90.0)
           (-90.0 90.0)
  end
  begin
     id 19
     name lradius
     direction 1 -4.48975e-011 3.71216e-028   
     length 3.35106   
     axis 180 -30 -90   XYZ
    dof rx
    limits (-10.0 170.0)
  end
  begin
     id 20
     name lwrist
     direction 1 -4.48957e-011 4.76535e-027   
     length 1.67553   
     axis -3.27501e-015 90 90   XYZ
    dof ry
    limits (-180.0 0.0)
 end
  begin
     id 21 
     name lhand
     direction 1 -4.49008e-011 9.52727e-027   
     length 0.574153   
     axis -6.08097e-015 90 90   XYZ
    dof rx rz
    limits (-90.0 90.0)
           (-45.0 45.0)
  end
  begin
     id 22 
     name lfingers
     direction 1 -4.48996e-011 1.90562e-026   
     length 0.462897   
     axis -1.21618e-014 90 90   XYZ
    dof rx
    limits (0.0 90.0)
  end
  begin
     id 23
     name lthumb
     direction 0.707107 -6.34908e-011 0.707107   
     length 0.66463   
     axis -90 45 -1.62303e-014   XYZ
    dof rx rz
    limits (-45.0 45.0)
           (-45.0 45.0)
  end
  begin
     id 24 
     name rclavicle
     direction -0.950439 0.29623 -0.0944132   
     length 3.45861  
     axis 0 0 0   XYZ 
    dof ry rz
    limits (-10.0 20.0)
           (-20.0 0.0)
  end
  begin
     id 25 
     name rhumerus
     direction -1 -4.48986e-011 1.25473e-027  
     length 5.33104   
     axis 180 30 90   XYZ
    dof rx ry rz
    limits (-90.0 60.0)
           (-90.0 90.0)
           (-90.0 90.0)
  end
  begin
     id 26 
     name rradius
     direction -1 -4.4894e-011 1.66273e-027   
     length 3.39883   
     axis 180 30 90   XYZ
    dof rx
    limits (-10.0 170.0)
  end
  begin
     id 27 
     name rwrist
     direction -1 -4.48946e-011 4.76572e-027   
     length 1.69941   
     axis -3.27501e-015 -90 -90   XYZ
    dof ry
    limits (-180.0 0.0)
  end
  begin
     id 28
     name rhand
     direction -1 -4.49028e-011 9.52595e-027   
     length 0.913886   
     axis -6.08097e-015 -90 -90   XYZ
    dof rx rz
    limits (-90.0 90.0)
           (-45.0 45.0)
  end
  begin
     id 29
     name rfingers
     direction -1 -4.48945e-011 1.9063e-026   
     length 0.736798   
     axis -1.21618e-014 -90 -90   XYZ
    dof rx
    limits (0.0 90.0)
  end
  begin
     id 30
     name rthumb
     direction -0.707107 -6.34966e-011 0.707107   
     length 1.0579   
     axis -90 -45 1.62303e-014   XYZ
    dof rx rz
    limits (-45.0 45.0)
           (-45.0 45.0)
  end
:hierarchy
  begin
    root lhipjoint rhipjoint lowerback
    lhipjoint lfemur
    lfemur ltibia
    ltibia lfoot
    lfoot ltoes
    rhipjoint rfemur
    rfemur rtibia
    rtibia rfoot
    rfoot rtoes
    lowerback upperback
    upperback thorax
    thorax lowerneck lclavicle rclavicle
    lowerneck upperneck
    upperneck head
    lclavicle lhumerus
    lhumerus lradius
    lradius lwrist
    lwrist lhand lthumb
    lhand lfingers
    rclavicle rhumerus
    rhumerus rradius
    rradius rwrist
    rwrist rhand rthumb
    rhand rfingers
  end

#!OML:ASF F:\VICON\USERDATA\INSTALL\rory3\rory3.ASF
:FULLY-SPECIFIED
:DEGREES
844
root -18.0606 17.8232 -31.3032 -321.885 71.3481 -319.141
lowerback 12.7029 1.00616 -4.83078
upperback 2.05788 0.645049 -2.54571
thorax -4.9788 0.426413 -0.0601337
lowerneck -28.5251 6.47674 7.31845
upperneck 15.8157 9.34936 -13.7912
head 10.8421 3.11024 -4.56586
rclavicle -1.42131e-014 1.51076e-014
rhumerus -28.3886 0.689833 -71.4584
rradius 49.4513
rwrist 0.808971
rhand -14.294 370.295
rfingers 7.12502
rthumb 11.8456 -739.35
lclavicle -1.42131e-014 1.51076e-014
lhumerus -35.0775 -2.40135 72.76
lradius 71.9169
lwrist 6.20272
lhand -15.6703 19.9691
lfingers 7.12502
lthumb 10.5182 49.6859
rfemur -10.4641 -12.4124 -3.69046
rtibia 42.5527
rfoot -14.362 -4.03391
rtoes -35.7447
lfemur -13.1376 -12.312 -25.3217
ltibia 39.7443
lfoot -11.0373 -4.33077
ltoes -25.4832
845
root -18.0319 17.9775 -31.1427 -324.631 72.7016 -321.83
lowerback 12.6826 1.24188 -3.77281
upperback 1.86267 1.10047 -2.11467
thorax -5.1794 0.632051 -0.281024
lowerneck -28.8751 5.85085 6.56872
upperneck 17.154 8.81114 -13.275
head 11.2659 2.82274 -4.38285
rclavicle 1.73937e-014 3.57812e-014
rhumerus -30.7939 1.71455 -71.9704
rradius 50.6189
rwrist 0.368337
rhand -12.8701 369.944
rfingers 7.12502
rthumb 13.2184 -739.617
lclavicle 1.73937e-014 3.57812e-014
lhumerus -36.9219 -3.98454 74.3354
lradius 73.8765
lwrist 5.60175
lhand -13.3336 19.9882
lfingers 7.12502
lthumb 12.7716 49.5776
rfemur -9.04282 -11.9283 -1.46965
rtibia 40.6618
rfoot -12.5512 -4.45756
rtoes -37.4628
lfemur -12.2163 -11.445 -23.2488
ltibia 38.9914
lfoot -11.1651 -3.6444
ltoes -26.5604
846
root -17.9962 18.1256 -30.9656 -330.344 74.0357 -327.192
lowerback 12.1993 1.28646 -3.24575
upperback 2.34102 1.31879 -1.06523
thorax -4.42769 0.723466 0.505299
lowerneck -29.0092 5.89773 6.61064
upperneck 17.4789 9.01791 -13.6795
head 11.4677 2.85712 -4.5117
rclavicle 3.97569e-015 -2.3059e-014
rhumerus -31.6431 3.33492 -72.3999
rradius 51.3203
rwrist -0.0638047
rhand -12.2506 370.104
rfingers 7.12502
rthumb 13.8155 -739.417
lclavicle 3.97569e-015 -2.3059e-014
lhumerus -38.2903 -3.79675 75.808
lradius 75.8712
lwrist 4.51804
lhand -10.4607 19.8867
lfingers 7.12502
lthumb 15.54 49.2823
rfemur -7.56895 -10.6888 1.50403
rtibia 38.7647
rfoot -10.4163 -5.44353
rtoes -38.7286
lfemur -10.7988 -10.8093 -20.537
ltibia 38.5122
lfoot -11.3066 -3.38975
ltoes -25.8004
847
root -17.9711 18.2349 -30.8033 -338.071 74.7271 -334.57
lowerback 12.1281 1.45655 -2.37758
upperback 2.60004 1.69991 -0.256067
thorax -4.13054 0.899427 0.807257
lowerneck -28.3554 6.12635 7.25976
upperneck 17.4179 9.21715 -14.126
head 11.4151 2.96745 -4.7508
rclavicle -1.43125e-014 4.77083e-015
rhumerus -32.6537 4.1717 -73.2297
rradius 51.7942
rwrist -0.783718
rhand -11.7182 370.663
rfingers 7.12502
rthumb 14.3286 -738.823
lclavicle -1.43125e-014 4.77083e-015
lhumerus -39.9987 -3.26131 76.9763
lradius 78.3692
lwrist 2.95527
lhand -7.40304 20.0509
lfingers 7.12502
lthumb 18.4832 49.1928
rfemur -6.89246 -7.78082 4.473
rtibia 37.1908
rfoot -8.80458 -6.34423
rtoes -37.9711
lfemur -9.47529 -9.90802 -17.7168
ltibia 38.4809
lfoot -10.9468 -3.26686
ltoes -24.7022
848
root -17.9687 18.3141 -30.7097 -342.27 74.7444 -338.633
lowerback 11.8703 1.52108 -2.15544
upperback 2.90571 1.85302 0.291314
thorax -3.68574 0.970931 1.24042
lowerneck -28.1962 6.47926 7.40025
upperneck 17.439 9.73869 -14.3661
head 11.4859 3.19142 -4.76382
rclavicle -6.65929e-015 2.38542e-015
rhumerus -32.834 5.3644 -74.0545
rradius 51.8735
rwrist -1.66361
rhand -11.9737 371.278
rfingers 7.12502
rthumb 14.0823 -738.225
lclavicle -6.65929e-015 2.38542e-015
lhumerus -41.5855 -1.69292 78.2113
lradius 81.1895
lwrist 0.966711
lhand -3.61066 20.5185
lfingers 7.12502
lthumb 22.1278 49.2723
rfemur -6.10279 -6.67524 5.92273
rtibia 36.3902
rfoot -7.52068 -6.10738
rtoes -39.0463
lfemur -8.68208 -9.05585 -16.285
ltibia 38.8259
lfoot -9.84799 -2.84436
ltoes -25.239
849
root -17.981 18.3458 -30.6858 -338.087 74.5612 -334.226
lowerback 11.9314 1.5486 -3.05415
upperback 2.91851 1.76812 -0.022529
thorax -3.71771 0.936305 1.43067
lowerneck -27.8106 6.50241 7.4419
upperneck 17.5032 9.80296 -14.4219
head 11.4557 3.23192 -4.78206
rclavicle -6.75868e-015 1.59028e-015
rhumerus -33.1784 5.89468 -74.5561
rradius 51.7584
rwrist -1.10399
rhand -11.7989 371.36
rfingers 7.12502
rthumb 14.2508 -738.131
lclavicle -6.75868e-015 1.59028e-015
lhumerus -43.3314 -0.71116 79.5672
lradius 84.2874
lwrist -0.56597
lhand -0.514239 21.057
lfingers 7.12502
lthumb 25.0977 49.4276
rfemur -5.34737 -8.28383 4.39515
rtibia 36.2183
rfoot -7.1731 -4.48335
rtoes -41.5174
lfemur -8.33618 -9.17469 -17.5232
ltibia 39.429
lfoot -7.87288 -2.14133
ltoes -25.947
850
root -17.9992 18.3455 -30.6697 -337.331 74.3915 -333.67
lowerback 11.9247 1.68641 -2.85989
upperback 2.72486 1.95534 -0.269234
thorax -3.9112 1.02865 1.03251
lowerneck -27.3836 6.4078 7.65353
upperneck 17.7106 9.60037 -14.3007
head 11.4309 3.18026 -4.81879
rclavicle 7.15625e-015 1.27222e-014
rhumerus -33.8356 4.82031 -74.9362
rradius 51.7128
rwrist 0.339533
rhand -11.4989 371.195
rfingers 7.12502
rthumb 14.5398 -738.275
lclavicle 7.15625e-015 1.27222e-014
lhumerus -44.4949 -0.444808 80.8773
lradius 86.7586
lwrist -1.46725
lhand 1.75608 22.0047
lfingers 7.12502
lthumb 27.2713 50.0527
rfemur -5.77609 -9.53319 4.19794
rtibia 36.8758
rfoot -7.48213 -4.08842
rtoes -43.7238
lfemur -8.37511 -9.32689 -17.557
ltibia 40.2337
lfoot -5.44627 -2.38722
ltoes -25.1529
851
root -18.006 18.3455 -30.6098 -337.902 74.5397 -333.969
lowerback 12.3797 1.83119 -2.81414
upperback 2.5904 2.12956 -0.355106
thorax -4.3042 1.11849 0.873705
lowerneck -27.1423 6.25041 7.75281
upperneck 18.2513 9.33312 -13.9742
head 11.5354 3.09845 -4.77993
rclavicle -8.44835e-015 1.90833e-014
rhumerus -34.7042 3.48858 -75.4872
rradius 51.7365
rwrist 0.423362
rhand -12.0221 371.079
rfingers 7.12502
rthumb 14.0357 -738.427
lclavicle -8.44835e-015 1.90833e-014
lhumerus -45.6391 -0.473512 82.1848
lradius 89.0787
lwrist -1.80283
lhand 3.45552 23.1247
lfingers 7.12502
lthumb 28.8957 50.9063
rfemur -5.81052 -9.9989 4.55287
rtibia 37.8815
rfoot -8.09046 -4.54281
rtoes -44.9971
lfemur -7.71472 -10.0258 -17.0688
ltibia 40.9185
lfoot -2.5825 -3.87145
ltoes -22.9338
852
root -18.0485 18.2909 -30.647 -338.522 73.7029 -335.145
lowerback 11.8095 1.80882 -2.91569
upperback 2.77509 2.12097 -0.120707
thorax -3.80961 1.10948 1.19759
lowerneck -27.4185 6.63126 7.76906
upperneck 18.3658 9.92285 -14.167
head 11.7211 3.32826 -4.74276
rclavicle 1.32192e-014 0
rhumerus -33.8844 3.69991 -75.6164
rradius 51.4107
rwrist 0.101925
rhand -12.8108 370.723
rfingers 7.12502
rthumb 13.2756 -738.834
lclavicle 1.32192e-014 0
lhumerus -45.5271 1.27054 83.9379
lradius 90.7828
lwrist -1.70331
lhand 3.73246 24.0496
lfingers 7.12502
lthumb 29.1602 51.7857
rfemur -7.57796 -10.7738 4.52111
rtibia 39.332
rfoot -8.72435 -4.24043
rtoes -46.0435
lfemur -8.02862 -9.99452 -17.1683
ltibia 41.4673
lfoot -0.0191939 -5.95329
ltoes -29.6631
853
root -18.0608 18.1889 -30.6121 -340.055 73.4008 -335.671
lowerback 13.0162 2.03399 -2.96409
upperback 2.86103 2.37627 -0.222485
thorax -4.38965 1.24472 1.04064
lowerneck -27.1176 6.54376 8.02717
upperneck 18.744 9.67353 -13.8659
head 11.7659 3.27109 -4.73286
rclavicle 2.28602e-015 -7.95139e-015
rhumerus -34.3743 2.27008 -75.8509
rradius 50.9504
rwrist 0.475888
rhand -13.5675 370.977
rfingers 7.12502
rthumb 12.5461 -738.627
lclavicle 2.28602e-015 -7.95139e-015
lhumerus -46.0006 0.947968 85.4238
lradius 92.2866
lwrist -0.831401
lhand 3.19759 24.5519
lfingers 7.12502
lthumb 28.6493 52.3754
rfemur -7.77429 -11.5909 4.41122
rtibia 41.6133
rfoot -9.76506 -4.38983
rtoes -47.6006
lfemur -6.41027 -10.7504 -17.2384
ltibia 41.4524
lfoot 1.88839 -9.33953
ltoes -29.1745
